<?xml version="1.0" encoding="UTF-8"?>
<!DOCTYPE svg PUBLIC "-//W3C//DTD SVG 1.1//EN" "http://www.w3.org/Graphics/SVG/1.1/DTD/svg11.dtd">
<!-- Creator: CorelDRAW X5 -->
<svg xmlns="http://www.w3.org/2000/svg" xml:space="preserve" width="86.3405mm" height="100mm" style="shape-rendering:geometricPrecision; text-rendering:geometricPrecision; image-rendering:optimizeQuality; fill-rule:evenodd; clip-rule:evenodd"
viewBox="0 0 69.9996 81.074"
 xmlns:xlink="http://www.w3.org/1999/xlink">
 <defs>
  <style type="text/css">
   <![CDATA[
    .fil0 {fill:#2E2E2D}
   ]]>
  </style>
 </defs>
 <g id="Layer_x0020_1">
  <metadata id="CorelCorpID_0Corel-Layer"/>
  <path id="_125352240" class="fil0" d="M65.4883 71.9878l0 -71.9878 -60.9771 0 0 71.9878 -4.5113 0 0 9.08614 69.9996 0 0 -9.08614 -4.5113 0zm-51.3029 -66.6313l16.8833 0 0 6.66443 -16.8833 0 0 -6.66443zm0 16.6611l16.8833 0 0 6.66302 -16.8833 0 0 -6.66302zm0 16.6597l16.8833 0 0 6.66443 -16.8833 0 0 -6.66443zm0 16.658l16.8833 0 0 6.66302 -16.8833 0 0 -6.66302zm41.6288 6.66302l-16.8833 0 0 -6.66302 16.8833 0 0 6.66302zm0 -16.6565l-16.8833 0 0 -6.66443 16.8833 0 0 6.66443zm0 -16.6611l-16.8833 0 0 -6.66443 16.8833 0 0 6.66443zm0 -16.6597l-16.8833 0 0 -6.66443 16.8833 0 0 6.66443z"/>
 </g>
</svg>
