<?xml version="1.0" encoding="UTF-8"?>
<!DOCTYPE svg PUBLIC "-//W3C//DTD SVG 1.1//EN" "http://www.w3.org/Graphics/SVG/1.1/DTD/svg11.dtd">
<!-- Creator: CorelDRAW X5 -->
<svg xmlns="http://www.w3.org/2000/svg" xml:space="preserve" width="272035mm" height="352778mm" style="shape-rendering:geometricPrecision; text-rendering:geometricPrecision; image-rendering:optimizeQuality; fill-rule:evenodd; clip-rule:evenodd"
viewBox="0 0 54954.2 71265.2"
 xmlns:xlink="http://www.w3.org/1999/xlink">
 <defs>
  <style type="text/css">
   <![CDATA[
    .fil0 {fill:black}
   ]]>
  </style>
 </defs>
 <g id="Layer_x0020_1">
  <metadata id="CorelCorpID_0Corel-Layer"/>
  <g id="_141343944">
   <g>
    <path id="_141344016" class="fil0" d="M259.84 68295.9l0 1484.69c0,819.84 510.192,1484.61 1139.47,1484.61l52415.4 0c629.275,0 1139.47,-664.77 1139.47,-1484.69l0 -1484.77 -54694.4 0 0 0.163575z"/>
   </g>
  </g>
  <g id="_141343824">
   <g>
    <path id="_141343896" class="fil0" d="M25239.9 26724.5l-23755.2 0c-819.922,0 -1484.77,664.77 -1484.77,1484.77l0 41571.4c0,819.84 664.852,1484.61 1484.77,1484.61l23755.2 0c819.922,0 1484.69,-664.77 1484.69,-1484.69l0 -41571.3c-0.0817877,-820.004 -664.77,-1484.77 -1484.69,-1484.77zm-1484.77 41571.5l-20785.6 0 0 -38602.2 20785.6 0 0 38602.2z"/>
   </g>
  </g>
  <g id="_141343584">
   <g>
    <path id="_141343656" class="fil0" d="M53449 0l-40086.7 0c-820.004,0 -1484.77,664.77 -1484.77,1484.77l0 22270.4 2969.47 0 0 -20785.9 37117.4 0 0 2969.38 2969.3 0 0 -4454.08c0,-819.84 -664.77,-1484.61 -1484.69,-1484.61z"/>
   </g>
  </g>
  <polygon class="fil0" points="51964.4,3542.47 51964.4,69110.7 54933.7,69110.7 54933.7,3542.47 "/>
  <g id="_141343440">
   <g>
    <rect id="_141343512" class="fil0" x="5938.86" y="32663.3" width="2969.34" height="26724.5"/>
   </g>
  </g>
  <g id="_141343296">
   <g>
    <rect id="_141343368" class="fil0" x="11877.7" y="32663.3" width="2969.34" height="26724.5"/>
   </g>
  </g>
  <g id="_141343152">
   <g>
    <rect id="_141343224" class="fil0" x="17816.4" y="32663.3" width="2969.34" height="26724.5"/>
   </g>
  </g>
  <g id="_141342144">
   <g>
    <rect id="_141342216" class="fil0" x="19301.1" y="7423.42" width="2969.34" height="4454.08"/>
   </g>
  </g>
  <g id="_141342000">
   <g>
    <rect id="_141342072" class="fil0" x="19301.1" y="16331.6" width="2969.34" height="4454.08"/>
   </g>
  </g>
  <g id="_141341856">
   <g>
    <rect id="_141341928" class="fil0" x="25239.9" y="16331.6" width="2969.34" height="4454.08"/>
   </g>
  </g>
  <g id="_141341712">
   <g>
    <rect id="_141341784" class="fil0" x="25239.9" y="7423.42" width="2969.34" height="4454.08"/>
   </g>
  </g>
  <g id="_141341568">
   <g>
    <rect id="_141341640" class="fil0" x="31178.6" y="7423.42" width="2969.34" height="4454.08"/>
   </g>
  </g>
  <g id="_141341424">
   <g>
    <rect id="_141341496" class="fil0" x="31178.6" y="16331.6" width="2969.34" height="4454.08"/>
   </g>
  </g>
  <g id="_141341280">
   <g>
    <rect id="_141341352" class="fil0" x="31178.6" y="25239.7" width="2969.34" height="4454.08"/>
   </g>
  </g>
  <g id="_141341136">
   <g>
    <rect id="_141341208" class="fil0" x="31178.6" y="34147.9" width="2969.34" height="4454.08"/>
   </g>
  </g>
  <g id="_141340992">
   <g>
    <rect id="_141341064" class="fil0" x="31178.6" y="43056" width="2969.34" height="4454.08"/>
   </g>
  </g>
  <g id="_141340848">
   <g>
    <rect id="_141340920" class="fil0" x="31178.6" y="51964.2" width="2969.34" height="4454.08"/>
   </g>
  </g>
  <g id="_141340728">
   <g>
    <path id="_141340800" class="fil0" d="M53449 60872.4l-7423.46 0c-819.922,0 -1484.69,664.77 -1484.69,1484.69l0 7423.46 2969.3 0 0 -5938.85 4454.08 0 0 5938.85 2969.47 0 0 -7423.46c0,-819.922 -664.77,-1484.69 -1484.69,-1484.69z"/>
   </g>
  </g>
  <g id="_141340560">
   <g>
    <path id="_141340680" class="fil0" d="M19301.1 62357.1l-11877.5 0c-820.004,0 -1484.77,664.77 -1484.77,1484.77l0 5938.77 2969.3 0 0 -4454.08 8908.23 0 0 4454.08 2969.3 0 0 -5938.77c0.163575,-820.004 -664.607,-1484.77 -1484.61,-1484.77z"/>
   </g>
  </g>
 </g>
</svg>
