<?xml version="1.0" encoding="UTF-8"?>
<!DOCTYPE svg PUBLIC "-//W3C//DTD SVG 1.1//EN" "http://www.w3.org/Graphics/SVG/1.1/DTD/svg11.dtd">
<!-- Creator: CorelDRAW X5 -->
<svg xmlns="http://www.w3.org/2000/svg" xml:space="preserve" width="338252mm" height="352778mm" style="shape-rendering:geometricPrecision; text-rendering:geometricPrecision; image-rendering:optimizeQuality; fill-rule:evenodd; clip-rule:evenodd"
viewBox="0 0 417798 435740"
 xmlns:xlink="http://www.w3.org/1999/xlink">
 <defs>
  <style type="text/css">
   <![CDATA[
    .fil0 {fill:black}
   ]]>
  </style>
 </defs>
 <g id="Layer_x0020_1">
  <metadata id="CorelCorpID_0Corel-Layer"/>
  <g id="_239838664">
   <g>
    <path id="_239838904" class="fil0" d="M356068 409627l-294353 0c-25392.5,0 -47834.3,-12780.2 -61359.7,-32167.5 1825.82,32389.6 28516.1,58280.6 61359.7,58280.6l294353 -5.02208c32873.2,0 59558.7,-25851.5 61374.5,-58280.4 -13525.2,19387.3 -35967,32172.4 -61374.5,32172.4z"/>
    <path id="_239838832" class="fil0" d="M356068 17956.3l-8901.65 0 0 -4899.78c0,-7209.2 -5837.44,-13056.5 -13056.5,-13056.5 -7209.2,0 -13056.4,5847.33 -13056.4,13056.5l0 4894.91 -23981.3 4.87438 0 -4899.78c0,-7209.2 -5847.33,-13056.5 -13056.5,-13056.5 -7209.2,0 -13056.5,5847.33 -13056.5,13056.5l0 4894.91 -23981.3 4.87438 0 -4899.78c0,-7209.2 -5837.44,-13056.5 -13056.5,-13056.5 -7209.2,0 -13056.4,5847.33 -13056.4,13056.5l0 4894.91 -23981.3 4.87438 0 -4899.78c0,-7209.2 -5847.33,-13056.5 -13056.5,-13056.5 -7209.2,0 -13056.5,5847.33 -13056.5,13056.5l0 4894.91 -23986.2 4.87438 0 -4899.78c0,-7209.2 -5847.33,-13056.5 -13056.5,-13056.5 -7209.2,0 -13056.5,5847.33 -13056.5,13056.5l0 4894.91 -23966.4 4.87438 0 -4899.78c0,-7209.2 -5847.33,-13056.5 -13056.5,-13056.5 -7209.2,0 -13056.5,5847.33 -13056.5,13056.5l0 4894.91 -8901.65 4.87438c-34008.1,0 -61690.3,27677.3 -61690.3,61700.2l0 255199c0,34008.1 27677.2,61714.9 61714.9,61714.9l294353 0c34023,0 61729.8,-27677.3 61729.8,-61714.9l0 -255199c-14.9185,-34022.9 -27692.1,-61700.2 -61729.8,-61700.2zm-28461.8 -4899.78c0,-3602.16 2926.25,-6528.27 6528.27,-6528.27 3602.16,0 6528.27,2926.1 6528.27,6528.27l0 84625.4c0,3602.16 -2926.1,6528.27 -6528.27,6528.27 -3602.02,0 -6528.27,-2926.1 -6528.27,-6528.27l0 -84625.4zm-50094.3 0c0,-3602.16 2936,-6528.27 6528.27,-6528.27 3602.16,0 6528.27,2926.1 6528.27,6528.27l0 84625.4c0,3602.16 -2926.1,6528.27 -6528.27,6528.27 -3592.27,0 -6528.27,-2926.1 -6528.27,-6528.27l0 -84625.4zm-50094.3 0c0,-3602.16 2926.1,-6528.27 6528.12,-6528.27 3602.16,0 6528.27,2926.1 6528.27,6528.27l0 84625.4c0,3602.16 -2926.1,6528.27 -6528.27,6528.27 -3602.02,0 -6528.12,-2926.1 -6528.12,-6528.27l0 -84625.4zm-50094.4 0c0,-3602.16 2926.1,-6528.27 6528.27,-6528.27 3602.16,0 6528.27,2926.1 6528.27,6528.27l0 84625.4c0,3602.16 -2926.1,6528.27 -6528.27,6528.27 -3602.16,0 -6528.27,-2926.1 -6528.27,-6528.27l0 -84625.4zm-50094.3 0c0,-3602.16 2926.1,-6528.27 6528.27,-6528.27 3602.02,0 6528.27,2926.1 6528.27,6528.27l0 84625.4c0,3602.16 -2926.25,6528.27 -6528.27,6528.27 -3602.16,0 -6528.27,-2926.1 -6528.27,-6528.27l0 -84625.4zm-50094.4 0c0,-3602.16 2926.1,-6528.27 6528.27,-6528.27 3602.16,0 6528.27,2926.1 6528.27,6528.27l0 84625.4c0,3602.16 -2926.1,6528.27 -6528.27,6528.27 -3602.16,0 -6528.27,-2926.1 -6528.27,-6528.27l0 -84625.4zm309211 321799c0,16673.3 -13579.6,30248 -30262.8,30248l-294368 0c-16683.4,0 -30262.9,-13579.6 -30262.9,-30248l0 -255199c0,-16683.2 13579.6,-30262.8 30262.9,-30262.8l8906.67 0 0 32809c-4426.23,3735.4 -7312.89,9257.03 -7312.89,15499 0,11225.8 9123.8,20369.3 20369.3,20369.3 11240.8,0 20369.4,-9123.8 20369.4,-20369.3 0,-6242.01 -2886.66,-11748.9 -7312.89,-15499l-4.87438 -32809 23986.2 0 0 32809c-4426.23,3735.4 -7312.75,9257.03 -7312.75,15499 0,11225.8 9123.65,20369.3 20369.3,20369.3 11240.6,0 20369.3,-9123.8 20369.3,-20369.3 0,-6242.01 -2886.66,-11748.9 -7312.75,-15499l-5.02208 -32809 23986.4 0 0 32809c-4426.23,3735.4 -7312.89,9257.03 -7312.89,15499 0,11225.8 9123.8,20369.3 20369.3,20369.3 11245.6,0 20369.4,-9123.8 20369.4,-20369.3 0,-6242.01 -2886.66,-11748.9 -7312.89,-15499l-4.87438 -32809 23986.2 0 0 32809c-4426.23,3735.4 -7312.89,9257.03 -7312.89,15499 0,11225.8 9123.8,20369.3 20369.4,20369.3 11245.5,0 20379.2,-9123.8 20379.2,-20369.3 0,-6242.01 -2896.56,-11748.9 -7322.79,-15499l0 -32809 23981.3 0 0 32809c-4426.08,3735.4 -7312.75,9257.03 -7312.75,15499 0,11225.8 9123.8,20369.3 20369.3,20369.3 11240.6,0 20369.3,-9123.8 20369.3,-20369.3 0,-6242.01 -2886.52,-11748.9 -7312.75,-15499l0 -32809 23981.3 0 0 32809c-4426.23,3735.4 -7312.89,9257.03 -7312.89,15499 0,11225.8 9113.9,20369.3 20369.4,20369.3 11255.4,0 20379.2,-9123.8 20379.2,-20369.3 0,-6242.01 -2886.66,-11748.9 -7322.79,-15499l0 -32809 8901.79 0c16673.5,0 30248,13579.6 30248,30262.8l-9.89646 255199 0 0z"/>
    <path id="_239838784" class="fil0" d="M287529 173736l-94183.4 102537 -65864.6 -48762.1c-8694.56,-6449.24 -20941.8,-4623.57 -27391,4075.86 -6434.47,8694.56 -4623.57,20956.6 4085.61,27405.8l80016.7 59257.6c3498.47,2585.64 7574.34,3853.71 11645.3,3853.71 5314.25,0 10599.1,-2156.39 14428.2,-6330.93l106105 -115530c7337.41,-7964.29 6799.61,-20354.5 -1174.43,-27667.4 -7944.5,-7312.75 -20334.9,-6819.4 -27667.4,1159.66z"/>
   </g>
  </g>
 </g>
</svg>
