<?xml version="1.0" encoding="UTF-8"?>
<!DOCTYPE svg PUBLIC "-//W3C//DTD SVG 1.1//EN" "http://www.w3.org/Graphics/SVG/1.1/DTD/svg11.dtd">
<!-- Creator: CorelDRAW X5 -->
<svg xmlns="http://www.w3.org/2000/svg" xml:space="preserve" width="487.949mm" height="500mm" style="shape-rendering:geometricPrecision; text-rendering:geometricPrecision; image-rendering:optimizeQuality; fill-rule:evenodd; clip-rule:evenodd"
viewBox="0 0 506.735 519.249"
 xmlns:xlink="http://www.w3.org/1999/xlink">
 <defs>
  <style type="text/css">
   <![CDATA[
    .fil0 {fill:#2B2A29}
   ]]>
  </style>
 </defs>
 <g id="Layer_x0020_1">
  <metadata id="CorelCorpID_0Corel-Layer"/>
  <path id="_128513560" class="fil0" d="M382.518 105.016c7.00019,0 12.7267,-5.72656 12.7267,-12.7267l0 -79.5582c0,-7.00494 -5.72656,-12.7315 -12.7267,-12.7315 -7.00019,0 -12.7314,5.72656 -12.7314,12.7315l0 79.5582c0,6.89477 5.73117,12.7267 12.7314,12.7267z"/>
  <path id="_128513488" class="fil0" d="M123.686 105.016c7.00494,0 12.7315,-5.72656 12.7315,-12.7267l0 -79.5582c0,-7.00494 -5.72656,-12.7315 -12.7315,-12.7315 -7.00019,0 -12.7266,5.72656 -12.7266,12.7315l0 79.5582c-0.105415,6.89477 5.30504,12.7267 12.7266,12.7267z"/>
  <path id="_128513416" class="fil0" d="M421.34 52.1897l0 39.5686c0,21.0052 -17.2896,38.2947 -38.2901,38.2947 -21.0052,0 -38.2947,-17.2897 -38.2947,-38.2947l0 -39.5686 -182.775 0 0 39.5686c0,21.0052 -17.2896,38.2947 -38.2947,38.2947 -21.0004,0 -38.2901,-17.2897 -38.2901,-38.2947l0 -39.5686 -85.3949 0 0 93.1374 0 0 506.734 0 0 -93.1374 -85.3949 0 0.00014401 0z"/>
  <path id="_128513368" class="fil0" d="M0.00043203 170.89l0 0 0 348.359 506.734 0 0 -347.934 -0.847499 0 -505.887 0 0 -0.426126 -0.00014401 0.00057604zm435.771 298.08l-365.334 0c-7.00019,0 -12.7315,-5.72656 -12.7315,-12.7314 0,-7.00033 5.73131,-12.7267 12.7315,-12.7267l365.649 0c7.00019,0 12.7315,5.72642 12.7315,12.7267 -0.320854,7.00479 -6.04741,12.7314 -13.0475,12.7314l0.00072005 0zm0 -74.1478l-365.334 0c-7.00019,0 -12.7315,-5.72656 -12.7315,-12.7315 0,-7.00019 5.73131,-12.7266 12.7315,-12.7266l365.649 0c7.00019,0 12.7315,5.72642 12.7315,12.7266 -0.320854,6.89491 -6.04741,12.7315 -13.0475,12.7315l0.00072005 0zm0 -73.8317l-365.334 0c-7.00019,0 -12.7315,-5.7267 -12.7315,-12.7269 0,-7.00479 5.73131,-12.7314 12.7315,-12.7314l365.649 0c7.00019,0 12.7315,5.72656 12.7315,12.7314 -0.320854,7.00019 -6.04741,12.7269 -13.0475,12.7269l0.00072005 0zm0 -73.8272l-365.334 0c-7.00019,0 -12.7315,-5.73117 -12.7315,-12.7314 0,-7.00019 5.73131,-12.7315 12.7315,-12.7315l365.649 0c7.00019,0 12.7315,5.73131 12.7315,12.7315 -0.320854,7.00019 -6.04741,12.7314 -13.0475,12.7314l0.00072005 0z"/>
 </g>
</svg>
