<?xml version="1.0" encoding="UTF-8"?>
<!DOCTYPE svg PUBLIC "-//W3C//DTD SVG 1.1//EN" "http://www.w3.org/Graphics/SVG/1.1/DTD/svg11.dtd">
<!-- Creator: CorelDRAW X5 -->
<svg xmlns="http://www.w3.org/2000/svg" xml:space="preserve" width="309230mm" height="352778mm" style="shape-rendering:geometricPrecision; text-rendering:geometricPrecision; image-rendering:optimizeQuality; fill-rule:evenodd; clip-rule:evenodd"
viewBox="0 0 6845.38 7809.4"
 xmlns:xlink="http://www.w3.org/1999/xlink">
 <defs>
  <style type="text/css">
   <![CDATA[
    .fil0 {fill:black}
   ]]>
  </style>
 </defs>
 <g id="Layer_x0020_1">
  <metadata id="CorelCorpID_0Corel-Layer"/>
  <path class="fil0" d="M1865.32 5111.74c18.9377,192.23 1081.33,1347.59 1276.31,1595.79 391.526,498.393 833.422,972.659 1735.77,1080.46 976.393,116.652 1557.01,-248.383 1801.28,-978.595 132.516,-396.141 163.776,-851.565 166.658,-1288 5.5243,-837.309 -685.108,-1351.03 -1437.36,-1412.3 -537.092,-43.7348 -766.029,-53.2803 -901.82,-523.659 -122.147,-423.14 -25.0747,-905.831 -132.009,-1300.9 -113.942,-420.976 -640.847,-448.042 -857.041,-115.378 -178.319,274.396 -90.2844,2250.48 -86.3877,2738.91 7.34339,921.858 -577.6,250.422 -653.447,195.61 -171.588,-124.005 -958.087,-460.144 -911.959,8.05188z"/>
  <polygon class="fil0" points="5.82109,477.703 5.59131,518.719 8.31995,975.579 980.366,980.893 980.854,4.0403 7.1902,1.84781 "/>
  <polygon class="fil0" points="1476.09,979.734 2448.37,979.39 2450.07,8.36782 1475.67,0 "/>
  <path class="fil0" d="M8.55931 3909.04l976.067 -13.9304 -2.28823 -936.689c-171.655,-44.6539 -808.586,-45.8603 -982.338,1.77122l8.55931 948.848z"/>
  <polygon class="fil0" points="2935.57,973.971 3914.6,980.385 3912.92,2.17334 2950.5,1.10103 "/>
  <polygon class="fil0" points="19.5122,2442.34 980.347,2441.64 967.25,1465.94 8.21464,1469.29 "/>
  <polygon class="fil0" points="1481.66,3909.1 2447.47,3907.97 2444.67,2933.77 1470.93,2955.08 "/>
  <polygon class="fil0" points="1478.59,2439.97 2449.65,2438.93 2438.27,1465.46 1472.43,1483.21 "/>
 </g>
</svg>
