<?xml version="1.0" encoding="UTF-8"?>
<!DOCTYPE svg PUBLIC "-//W3C//DTD SVG 1.1//EN" "http://www.w3.org/Graphics/SVG/1.1/DTD/svg11.dtd">
<!-- Creator: CorelDRAW X5 -->
<svg xmlns="http://www.w3.org/2000/svg" xml:space="preserve" width="433px" height="528px" style="shape-rendering:geometricPrecision; text-rendering:geometricPrecision; image-rendering:optimizeQuality; fill-rule:evenodd; clip-rule:evenodd"
viewBox="0 0 29.6138 36.1071"
 xmlns:xlink="http://www.w3.org/1999/xlink">
 <defs>
  <style type="text/css">
   <![CDATA[
    .str0 {stroke:#FDFDFD;stroke-width:0.16153;stroke-opacity:0.000000}
    .fil1 {fill:#1085CE}
    .fil0 {fill:#FDFDFD;fill-opacity:0.000000}
   ]]>
  </style>
 </defs>
 <g id="Layer_x0020_1">
  <metadata id="CorelCorpID_0Corel-Layer"/>
  <polygon class="fil0 str0" points="0.0807651,0.0807651 29.5331,0.0807651 29.5331,36.0263 0.0807651,36.0263 "/>
 </g>
 <g id="Layer_x0020_1_0">
  <metadata id="CorelCorpID_1Corel-Layer"/>
  <path class="fil1" d="M18.4863 14.5987l-13.8199 0c-0.520451,0 -0.942448,-0.421998 -0.942448,-0.942448 0,-0.520289 0.421998,-0.942287 0.942448,-0.942287l13.8196 0c0.520451,0 0.942448,0.421998 0.942448,0.942287 0,0.520451 -0.421998,0.942448 -0.942206,0.942448zm0 3.70615l-13.8199 0c-0.520451,0 -0.942448,-0.421836 -0.942448,-0.942287 0,-0.520451 0.421998,-0.942206 0.942448,-0.942206l13.8196 0c0.520451,0 0.942448,0.421756 0.942448,0.942206 0,0.520451 -0.421998,0.942287 -0.942206,0.942287zm0 3.70607l-13.8199 0c-0.520451,0 -0.942448,-0.421756 -0.942448,-0.942206 0,-0.520289 0.421998,-0.942287 0.942448,-0.942287l13.8196 0c0.520451,0 0.942448,0.421998 0.942448,0.942287 0,0.520451 -0.421998,0.942206 -0.942206,0.942206zm-6.91002 7.28695c-1.38553,0 -2.51268,-1.12732 -2.51268,-2.51285 0,-1.38528 1.12716,-2.51268 2.51268,-2.51268 1.38553,0 2.5126,1.1274 2.5126,2.51268 0,1.38553 -1.12708,2.51285 -2.5126,2.51285zm-4.89986 -20.3529l9.79964 0c0.520289,0 0.942287,0.421998 0.942287,0.942287 0,0.520451 -0.421998,0.942206 -0.942287,0.942206l-9.79964 0c-0.520208,0 -0.942206,-0.421756 -0.942206,-0.942206 0.000242295,-0.520289 0.421998,-0.942287 0.942206,-0.942287zm15.4531 -5.02529l-21.1066 0c-0.520208,0 -0.942206,0.421756 -0.942206,0.942206l0 26.3834c0,0.520208 0.421756,0.942206 0.942206,0.942206l21.1066 0c0.520289,0 0.942287,-0.421998 0.942287,-0.942206l0 -26.3834c0,-0.520451 -0.421836,-0.942206 -0.942287,-0.942206z"/>
 </g>
</svg>
