<?xml version="1.0" encoding="UTF-8"?>
<!DOCTYPE svg PUBLIC "-//W3C//DTD SVG 1.1//EN" "http://www.w3.org/Graphics/SVG/1.1/DTD/svg11.dtd">
<!-- Creator: CorelDRAW X5 -->
<svg xmlns="http://www.w3.org/2000/svg" xml:space="preserve" width="319.476mm" height="614.248mm" style="shape-rendering:geometricPrecision; text-rendering:geometricPrecision; image-rendering:optimizeQuality; fill-rule:evenodd; clip-rule:evenodd"
viewBox="0 0 159.738 307.124"
 xmlns:xlink="http://www.w3.org/1999/xlink"
 version="1.1">
 <defs>
  <style type="text/css">
   <![CDATA[
    .fil0 {fill:#199FE7}
   ]]>
  </style>
 </defs>
 <g id="Layer_x0020_1">
  <metadata id="CorelCorpID_0Corel-Layer"/>
  <g id="user.svg">
   <g>
    <path id="_127177672" class="fil0" d="M1.25695 1.82975c0.50435,0 0.914701,-0.4104 0.914701,-0.914851 -5e-005,-0.5045 -0.41035,-0.914901 -0.914701,-0.914901 -0.50445,0 -0.914801,0.4104 -0.914801,0.914901 0,0.50445 0.41035,0.914851 0.914801,0.914851z"/>
    <path id="_126846304" class="fil0" d="M2.5092 3.09815l-0.15805 -0.801001c-0.0216,-0.1092 -0.12555,-0.19475 -0.23675,-0.19475l-1.71505 0c-0.1112,0 -0.21515,0.0855501 -0.23675,0.19475l-0.15805 0.801001c-0.02045,0.10355 0.02965,0.23435 0.11405,0.2978 0.02705,0.0203 0.66755,0.49745 1.13825,0.49745 0.47075,0 1.11125,-0.47715 1.1383,-0.49745 0.0844001,-0.06345 0.1345,-0.19425 0.11405,-0.2978z"/>
   </g>
   <g>
   </g>
   <g>
   </g>
   <g>
   </g>
   <g>
   </g>
   <g>
   </g>
   <g>
   </g>
   <g>
   </g>
   <g>
   </g>
   <g>
   </g>
   <g>
   </g>
   <g>
   </g>
   <g>
   </g>
   <g>
   </g>
   <g>
   </g>
   <g>
   </g>
  </g>
 </g>
</svg>
