<?xml version="1.0" encoding="UTF-8"?>
<!DOCTYPE svg PUBLIC "-//W3C//DTD SVG 1.1//EN" "http://www.w3.org/Graphics/SVG/1.1/DTD/svg11.dtd">
<!-- Creator: CorelDRAW X5 -->
<svg xmlns="http://www.w3.org/2000/svg" xml:space="preserve" width="352778mm" height="352778mm" style="shape-rendering:geometricPrecision; text-rendering:geometricPrecision; image-rendering:optimizeQuality; fill-rule:evenodd; clip-rule:evenodd"
viewBox="0 0 68507.9 68507.9"
 xmlns:xlink="http://www.w3.org/1999/xlink">
 <defs>
  <style type="text/css">
   <![CDATA[
    .str0 {stroke:#FDFDFD;stroke-width:306.48;stroke-opacity:0.000000}
    .fil1 {fill:black}
    .fil0 {fill:#FDFDFD;fill-opacity:0.000000}
   ]]>
  </style>
 </defs>
 <g id="Layer_x0020_1">
  <metadata id="CorelCorpID_0Corel-Layer"/>
  <polygon class="fil0 str0" points="153.24,153.24 68354.7,153.24 68354.7,68354.7 153.24,68354.7 "/>
 </g>
 <g id="Layer_x0020_1_0">
  <metadata id="CorelCorpID_1Corel-Layer"/>
  <g id="_243080616">
   <g>
    <path id="_243081072" class="fil1" d="M40043.1 46283.2l8788.93 -15996.4c1297.33,-2402.96 1983.54,-5121.28 1983.54,-7862.74 0.15324,-9132.18 -7429.38,-16561.7 -16561.7,-16561.7 -9132.34,0 -16561.7,7429.53 -16561.7,16561.7 0,2741.46 686.362,5459.79 1988.14,7869.64l8784.64 15989.5c-7756.55,492.207 -20236.7,2197.31 -20236.7,8081.42 0,8048.78 23361.7,8280.94 26025.7,8280.94 2664.08,0 26025.8,-232.159 26025.8,-8280.94 0,-5884.11 -12480,-7589.06 -20236.6,-8081.42zm-15253 -23859.2c0,-5218.28 4245.51,-9463.8 9463.8,-9463.8 5218.28,0 9463.95,4245.51 9463.95,9463.8 0,5218.28 -4245.67,9463.95 -9463.95,9463.95 -5218.28,0 -9463.8,-4245.67 -9463.8,-9463.95zm9463.8 35489.6c-11632.1,0 -19260.4,-2126.82 -21047.5,-3549.04 1613.31,-1283.84 7999.89,-3136.82 17783.3,-3485.75l2228.11 4055.34c206.721,378.963 604.072,613.42 1036.21,613.42 432.137,0 829.488,-234.61 1036.36,-613.42l2228.11 -4055.34c9783.45,348.927 16169.7,2201.91 17783.2,3485.75 -1787.24,1422.22 -9415.53,3549.04 -21047.8,3549.04z"/>
   </g>
  </g>
 </g>
</svg>
