<?xml version="1.0" encoding="UTF-8"?>
<!DOCTYPE svg PUBLIC "-//W3C//DTD SVG 1.1//EN" "http://www.w3.org/Graphics/SVG/1.1/DTD/svg11.dtd">
<!-- Creator: CorelDRAW X5 -->
<svg xmlns="http://www.w3.org/2000/svg" xml:space="preserve" width="593px" height="593px" style="shape-rendering:geometricPrecision; text-rendering:geometricPrecision; image-rendering:optimizeQuality; fill-rule:evenodd; clip-rule:evenodd"
viewBox="0 0 46.4264 46.4264"
 xmlns:xlink="http://www.w3.org/1999/xlink">
 <defs>
  <style type="text/css">
   <![CDATA[
    .str0 {stroke:#FDFDFD;stroke-width:0.184966}
    .fil1 {fill:none}
    .fil0 {fill:#2E2E2D}
   ]]>
  </style>
 </defs>
 <g id="Layer_x0020_1_0">
  <metadata id="CorelCorpID_0Corel-Layer"/>
  <g id="_283469880">
   <path id="_283469736" class="fil0" d="M29.3109 22.6927l5.86332 2.15365 -4.87625 13.2765c-0.45631,1.2487 -2.93087,5.15601 -4.65411,5.95303l-0.4183 1.14068c-0.106448,0.289009 -0.380197,0.469998 -0.670686,0.469998 -0.0821248,0 -0.164342,-0.0151672 -0.246467,-0.0441143 -0.369561,-0.136875 -0.561186,-0.546019 -0.424311,-0.918632l0.395457 -1.07835c-0.874518,-1.69891 -0.222051,-6.63296 0.161198,-7.67635l4.87015 -13.2764zm8.48539 -14.0476c-1.61216,-0.590133 -3.49974,0.629623 -4.03965,2.10343l-3.53164 9.62164 5.86175 2.1506 3.52711 -9.62007c0.444103,-1.20459 -0.20226,-3.66399 -1.81757,-4.2556zm-10.6087 13.5502c0.164342,0.0608537 0.333123,0.0897084 0.497373,0.0897084 0.580977,0 1.12709,-0.355874 1.34146,-0.933892l3.72641 -10.0505c0.275229,-0.740695 -0.103488,-1.56351 -0.844183,-1.83726 -0.746799,-0.27079 -1.56351,0.103396 -1.83884,0.844091l-3.72632 10.0505c-0.275321,0.740695 0.103396,1.56361 0.844091,1.83736zm-5.99862 18.8462c-0.384821,-0.363458 -0.863882,-0.816716 -1.63963,-1.16195 -0.638779,-0.284477 -1.26082,-0.298165 -1.71565,-0.3088 -0.0470738,0 -0.101824,-0.00147973 -0.156666,-0.00305193 -0.284385,-0.778706 -0.86083,-1.2684 -1.72628,-1.46012 -1.14522,-0.241843 -2.05932,0.298165 -2.69356,0.714892 0.0562296,-0.319436 0.14899,-0.699633 0.21752,-0.973382 0.218999,-0.882194 0.444103,-1.79481 0.276801,-2.64954 -0.132343,-0.67531 -0.702685,-1.17721 -1.3902,-1.22586 -1.77188,-0.0988642 -3.21988,0.854726 -4.49596,1.71713 -1.33998,0.904945 -2.19924,1.44486 -3.05406,1.1392 -1.04339,-0.371134 -1.14836,-3.19556 -0.646455,-5.71119 0.448727,-2.26629 1.28375,-6.48536 3.42371,-8.40179 0.720904,-0.644883 1.7643,-1.34304 2.62217,-1.00381 1.00834,0.395364 1.84189,2.05626 2.02741,4.03503 0.0775931,0.835028 0.80608,1.448 1.65637,1.37198 0.836507,-0.0775931 1.45096,-0.81986 1.37189,-1.65637 -0.301124,-3.22441 -1.81303,-5.74614 -3.94384,-6.58422 -1.27608,-0.495801 -3.30506,-0.629716 -5.76446,1.5711 -2.67534,2.39558 -3.66399,6.45808 -4.38036,10.0764 -0.358926,1.80693 -1.23354,7.8025 2.61144,9.16986 2.34231,0.835028 4.24506,-0.453258 5.77361,-1.48444 0.279853,-0.188573 0.555175,-0.374186 0.82282,-0.539915 -0.253958,1.10267 -0.412196,2.28294 0.253958,3.27768 0.993266,1.49351 2.39706,1.65628 4.17051,0.488217 0.0684373,-0.0441143 0.14751,-0.0958122 0.222051,-0.14751 0.16425,0.343666 0.454738,0.722383 0.982538,0.980966 0.638779,0.313332 1.27765,0.328499 1.74302,0.340707 0.199208,0.00453166 0.471478,0.0106355 0.553602,0.0471663 0.285957,0.126239 0.454831,0.281333 0.78333,0.591613 0.246374,0.232687 0.506436,0.474529 0.836507,0.723956 0.273749,0.205404 0.593185,0.302696 0.909569,0.302696 0.462322,0 0.920204,-0.211416 1.21828,-0.608352 0.503384,-0.672258 0.36651,-1.62594 -0.305748,-2.12933 -0.220479,-0.170353 -0.395457,-0.339227 -0.564238,-0.498945z"/>
  </g>
 </g>
 <g id="Layer_x0020_1">
  <metadata id="CorelCorpID_1Corel-Layer"/>
  <rect class="fil1 str0" x="0.0924828" y="0.0924828" width="46.2414" height="46.2414"/>
 </g>
</svg>
