<?xml version="1.0" encoding="UTF-8"?>
<!DOCTYPE svg PUBLIC "-//W3C//DTD SVG 1.1//EN" "http://www.w3.org/Graphics/SVG/1.1/DTD/svg11.dtd">
<!-- Creator: CorelDRAW X5 -->
<svg xmlns="http://www.w3.org/2000/svg" xml:space="preserve" width="390287mm" height="352778mm" style="shape-rendering:geometricPrecision; text-rendering:geometricPrecision; image-rendering:optimizeQuality; fill-rule:evenodd; clip-rule:evenodd"
viewBox="0 0 257638 232878"
 xmlns:xlink="http://www.w3.org/1999/xlink">
 <defs>
  <style type="text/css">
   <![CDATA[
    .fil0 {fill:#0097DF}
   ]]>
  </style>
 </defs>
 <g id="Layer_x0020_1_0">
  <metadata id="CorelCorpID_0Corel-Layer"/>
  <g id="_560529768">
   <g>
    <path id="_560529816" class="fil0" d="M643.391 109601c1308.38,-3158.26 4389.99,-5217.74 7808.58,-5217.74l16619 0c6127.78,-58573.4 55795.5,-104384 115964,-104384 64295.4,0 116603,52307.6 116603,116603 0,61227.9 -47435.8,111585 -107487,116250 -2347.97,182.552 -4665.55,-624.336 -6394.85,-2222.89 -1729.85,-1598.58 -2721.01,-3847.94 -2721.01,-6203.26l0 -39644.7c0,-4272.23 3177.99,-7854.78 7418.66,-8377.69 29737.8,-3666.55 52836.7,-29087 52836.7,-59801.2 0,-33225.1 -27030.8,-60255.9 -60255.9,-60255.9 -29040.2,0 -53347.2,20650.1 -59010.1,48037.1l14734.2 -0.0306348c3418.59,0 6500.2,2058.93 7808.58,5217.74 1307.83,3158.26 584.879,6793.78 -1832.42,9211.07l-44153.6 44153c-1650.42,1650.42 -3813.57,2475.9 -5976.17,2475.9 -2162.6,0 -4326.33,-825.484 -5976.17,-2475.9l-44153.7 -44153c-2417.3,-2417.3 -3140.22,-6052.23 -1832.42,-9211.07z"/>
   </g>
  </g>
 </g>
</svg>
