<?xml version="1.0" encoding="UTF-8"?>
<!DOCTYPE svg PUBLIC "-//W3C//DTD SVG 1.1//EN" "http://www.w3.org/Graphics/SVG/1.1/DTD/svg11.dtd">
<!-- Creator: CorelDRAW X5 -->
<svg xmlns="http://www.w3.org/2000/svg" xml:space="preserve" width="99.1226mm" height="100mm" style="shape-rendering:geometricPrecision; text-rendering:geometricPrecision; image-rendering:optimizeQuality; fill-rule:evenodd; clip-rule:evenodd"
viewBox="0 0 2.55175 2.57434"
 xmlns:xlink="http://www.w3.org/1999/xlink">
 <defs>
  <style type="text/css">
   <![CDATA[
    .fil0 {fill:#2B2A29}
   ]]>
  </style>
 </defs>
 <g id="Layer_x0020_1">
  <metadata id="CorelCorpID_0Corel-Layer"/>
  <g id="_259397168">
   <path id="_126839800" class="fil0" d="M2.19938 0.32456c-0.234752,-0.216366 -0.526739,-0.32456 -0.875449,-0.32456 -0.366559,0 -0.679033,0.122894 -0.936884,0.369196 -0.257851,0.246302 -0.387045,0.552452 -0.387045,0.919011 0,0.351346 0.122894,0.65332 0.368146,0.906435 0.246302,0.253138 0.577138,0.379696 0.993583,0.379696 0.251038,0 0.49734,-0.0514723 0.738905,-0.15493 0.0787717,-0.0335993 0.117108,-0.123944 0.0850716,-0.203229l0 0c-0.033086,-0.0819217 -0.126557,-0.119744 -0.207942,-0.0850716 -0.210066,0.0903215 -0.415931,0.135494 -0.616547,0.135494 -0.31931,0 -0.566638,-0.097158 -0.742055,-0.292011 -0.17488,-0.194293 -0.262588,-0.422745 -0.262588,-0.684796 0,-0.284638 0.0940081,-0.522003 0.281488,-0.712632 0.186966,-0.190116 0.417518,-0.285687 0.690583,-0.285687 0.251552,0 0.464254,0.0782351 0.637547,0.234729 0.173316,0.156493 0.259951,0.353446 0.259951,0.590811 0,0.16228 -0.0398992,0.297774 -0.119208,0.405432 -0.079285,0.108171 -0.161743,0.161743 -0.247352,0.161743 -0.0461991,0 -0.0693219,-0.0246862 -0.0693219,-0.0745718 0,-0.0404358 0.00314994,-0.0877082 0.00893648,-0.14233l0.0976713 -0.798754 -0.336086 0 -0.0215362 0.0782351c-0.0856082,-0.0698352 -0.179616,-0.105021 -0.281488,-0.105021 -0.161743,0 -0.300387,0.0645853 -0.415395,0.193266 -0.115544,0.128657 -0.17278,0.294601 -0.17278,0.497316 0,0.197979 0.0509356,0.358159 0.153344,0.479467 0.102408,0.121844 0.225302,0.18223 0.369196,0.18223 0.128657,0 0.238415,-0.0540856 0.329787,-0.161743 0.0688086,0.103458 0.170167,0.15493 0.304074,0.15493 0.196929,0 0.367096,-0.0856082 0.510453,-0.257338 0.14338,-0.171193 0.215316,-0.378109 0.215316,-0.620211 0,-0.306687 -0.117108,-0.568738 -0.352373,-0.785104zm-0.774091 1.20839c-0.0593355,0.0798217 -0.130244,0.120258 -0.212702,0.120258 -0.0561855,0 -0.101358,-0.0293994 -0.135494,-0.0882215 -0.0346493,-0.0588221 -0.0519856,-0.131831 -0.0519856,-0.219516 0,-0.108194 0.0241728,-0.195366 0.0724719,-0.261538 0.0483223,-0.066172 0.108194,-0.0997713 0.179616,-0.0997713 0.0619721,0 0.117108,0.0246862 0.16543,0.0745718 0.048299,0.0498856 0.0724719,0.116058 0.0724719,0.199029 -0.000536656,0.103458 -0.0304727,0.194829 -0.0898082,0.275188z"/>
  </g>
 </g>
</svg>
