<?xml version="1.0" encoding="iso-8859-1"?>
<!-- Generator: Adobe Illustrator 19.0.0, SVG Export Plug-In . SVG Version: 6.00 Build 0)  -->
<svg version="1.1" id="Capa_1" xmlns="http://www.w3.org/2000/svg" xmlns:xlink="http://www.w3.org/1999/xlink" x="0px" y="0px"
	 viewBox="0 0 368 368" style="enable-background:new 0 0 368 368;" xml:space="preserve">
<g>
	<g>
		<path d="M365,177.751l-160-128c-2.408-1.92-5.712-2.288-8.472-0.968c-2.76,1.336-4.528,4.144-4.528,7.216v72H16
			c-8.824,0-16,7.176-16,16v80c0,8.824,7.176,16,16,16h176v72c0,3.072,1.768,5.88,4.528,7.208c1.112,0.528,2.296,0.792,3.472,0.792
			c1.784,0,3.552-0.6,5-1.752l160-128c1.896-1.52,3-3.816,3-6.248S366.896,179.271,365,177.751z M208,295.351v-63.352
			c0-4.416-3.576-8-8-8H16l-0.016-80H16h184c4.424,0,8-3.584,8-8V72.647l139.192,111.352L208,295.351z"/>
	</g>
</g>
<g>
</g>
<g>
</g>
<g>
</g>
<g>
</g>
<g>
</g>
<g>
</g>
<g>
</g>
<g>
</g>
<g>
</g>
<g>
</g>
<g>
</g>
<g>
</g>
<g>
</g>
<g>
</g>
<g>
</g>
</svg>
