<?xml version="1.0" encoding="UTF-8"?>
<!DOCTYPE svg PUBLIC "-//W3C//DTD SVG 1.1//EN" "http://www.w3.org/Graphics/SVG/1.1/DTD/svg11.dtd">
<!-- Creator: CorelDRAW X5 -->
<svg xmlns="http://www.w3.org/2000/svg" xml:space="preserve" width="319.229mm" height="805.728mm" style="shape-rendering:geometricPrecision; text-rendering:geometricPrecision; image-rendering:optimizeQuality; fill-rule:evenodd; clip-rule:evenodd"
viewBox="0 0 159.615 402.864"
 xmlns:xlink="http://www.w3.org/1999/xlink"
 version="1.1">
 <defs>
  <style type="text/css">
   <![CDATA[
    .fil0 {fill:#199FE7}
   ]]>
  </style>
 </defs>
 <g id="Layer_x0020_1">
  <metadata id="CorelCorpID_0Corel-Layer"/>
  <g id="hotel.svg">
   <path id="_125352240" class="fil0" d="M2.12155 4.26865l0 -3.2179 -0.33485 0 0 -0.226 -0.36085 0 -0.2391 -0.2254 -0.0529 -0.59935 -0.0529 0.59935 -0.2391 0.2254 -0.36085 0 0 0.226 -0.33485 0 0 3.2179 -0.14615 0 0 0.29435 2.2677 0 0 -0.29435 -0.14615 0zm-1.662 -2.9636l0.54695 0 0 0.21585 -0.54695 0 0 -0.21585zm0 0.5397l0.54695 0 0 0.2159 -0.54695 0 0 -0.2159zm0 0.53975l0.54695 0 0 0.21585 -0.54695 0 0 -0.21585zm0 0.5397l0.54695 0 0 0.2159 -0.54695 0 0 -0.2159zm0 0.53965l0.54695 0 0 0.21585 -0.54695 0 0 -0.21585zm1.04365 0.804801l-0.73865 0 0 -0.35685 0.73865 0 0 0.35685zm0.30495 -0.58895l-0.54695 0 0 -0.21585 0.54695 0 0 0.21585zm0 -0.5396l-0.54695 0 0 -0.2159 0.54695 0 0 0.2159zm0 -0.53975l-0.54695 0 0 -0.2159 0.54695 0 0 0.2159zm0 -0.5397l-0.54695 0 0 -0.2159 0.54695 0 0 0.2159zm0 -0.53975l-0.54695 0 0 -0.21585 0.54695 0 0 0.21585z"/>
   <g>
   </g>
   <g>
   </g>
   <g>
   </g>
   <g>
   </g>
   <g>
   </g>
   <g>
   </g>
   <g>
   </g>
   <g>
   </g>
   <g>
   </g>
   <g>
   </g>
   <g>
   </g>
   <g>
   </g>
   <g>
   </g>
   <g>
   </g>
   <g>
   </g>
  </g>
 </g>
</svg>
