<?xml version="1.0" encoding="UTF-8"?>
<!DOCTYPE svg PUBLIC "-//W3C//DTD SVG 1.1//EN" "http://www.w3.org/Graphics/SVG/1.1/DTD/svg11.dtd">
<!-- Creator: CorelDRAW X5 -->
<svg xmlns="http://www.w3.org/2000/svg" xml:space="preserve" width="448994mm" height="352778mm" style="shape-rendering:geometricPrecision; text-rendering:geometricPrecision; image-rendering:optimizeQuality; fill-rule:evenodd; clip-rule:evenodd"
viewBox="0 0 28414.9 22325.8"
 xmlns:xlink="http://www.w3.org/1999/xlink">
 <defs>
  <style type="text/css">
   <![CDATA[
    .fil0 {fill:black}
   ]]>
  </style>
 </defs>
 <g id="Layer_x0020_1">
  <metadata id="CorelCorpID_0Corel-Layer"/>
  <g id="_239836144">
   <g>
    <path id="_239836312" class="fil0" d="M2727.28 6881.7c359.447,253.653 1442.93,1006.97 3250.54,2259.58 1807.67,1252.61 3192.45,2217.09 4154.42,2893.48 105.689,74.1396 330.228,235.307 673.743,483.734 343.557,248.594 629.032,449.477 856.174,602.71 227.31,153.17 502.122,325.001 824.688,515.22 322.461,190.051 626.409,332.999 911.821,427.646 285.475,95.4243 549.708,142.675 792.803,142.675l15.953 0 15.995 0c243.095,0 507.453,-47.3133 792.929,-142.675 285.307,-94.6477 589.549,-237.763 911.716,-427.646 322.335,-190.45 597.147,-362.113 824.457,-515.22 227.31,-153.233 512.554,-354.115 856.237,-602.71 343.452,-248.636 568.264,-409.594 673.953,-483.734 972.359,-676.409 3446.21,-2394.26 7420.74,-5153.4 771.644,-538.898 1416.34,-1189.13 1934.22,-1950.28 518.285,-760.813 777.144,-1558.97 777.144,-2393.98 0,-697.777 -251.197,-1295.09 -753.382,-1791.88 -502.122,-496.895 -1096.83,-745.217 -1783.72,-745.217l-23340.8 0c-813.92,0 -1440.27,274.812 -1878.97,824.415 -438.625,549.708 -657.958,1236.82 -657.958,2061.3 0,665.955 290.807,1387.62 872.127,2164.55 581.257,776.976 1199.86,1387.49 1855.15,1831.43z"/>
    <path id="_239836264" class="fil0" d="M26829 8578.16c-3466.93,2346.54 -6099.43,4170.21 -7896.27,5470.57 -602.542,443.809 -1091.33,790.263 -1466.71,1038.5 -375.379,248.427 -874.625,502.122 -1498.43,760.981 -623.575,259.258 -1204.73,388.498 -1743.96,388.498l-16.121 0.0209908 -15.953 0c-539.108,0 -1120.6,-129.241 -1744.17,-388.498 -623.575,-258.859 -1123.16,-512.554 -1498.43,-760.981 -375.169,-248.259 -864.13,-594.712 -1466.61,-1038.5 -1427.17,-1046.46 -4054.02,-2870.22 -7880.65,-5470.57 -602.689,-401.45 -1136.53,-861.59 -1601.66,-1379.48l0 12589.7c0,698.113 248.322,1295.09 745.217,1791.95 496.79,497.021 1094.17,745.427 1791.88,745.427l23340.8 0c697.567,0 1294.88,-248.427 1791.71,-745.427 497.021,-497.021 745.217,-1093.77 745.217,-1791.95l0 -12589.7c-454.641,507.181 -983.022,967.3 -1585.9,1379.45z"/>
   </g>
  </g>
 </g>
</svg>
