<?xml version="1.0" encoding="UTF-8"?>
<!DOCTYPE svg PUBLIC "-//W3C//DTD SVG 1.1//EN" "http://www.w3.org/Graphics/SVG/1.1/DTD/svg11.dtd">
<!-- Creator: CorelDRAW X5 -->
<svg xmlns="http://www.w3.org/2000/svg" xml:space="preserve" width="343487mm" height="352778mm" style="shape-rendering:geometricPrecision; text-rendering:geometricPrecision; image-rendering:optimizeQuality; fill-rule:evenodd; clip-rule:evenodd"
viewBox="0 0 130796 134334"
 xmlns:xlink="http://www.w3.org/1999/xlink">
 <defs>
  <style type="text/css">
   <![CDATA[
    .fil0 {fill:black}
   ]]>
  </style>
 </defs>
 <g id="Layer_x0020_1_0">
  <metadata id="CorelCorpID_0Corel-Layer"/>
  <path class="fil0" d="M2099.12 62195.4l60094.8 -60096.7c1398.34,-1397.61 3055.96,-2098.68 4970.82,-2098.68 1914.86,0 3572.48,701.071 4972.43,2098.68 1399.51,1399.51 2098.68,3058.3 2098.68,4971.99l0 31815.2 49489.8 0c1916.03,0 3572.48,701.071 4971.99,2098.68 1399.51,1399.51 2098.68,3057.13 2098.68,4971.99l0 42420.9c0,1914.56 -699.17,3572.04 -2098.68,4970.82 -1401.12,1396.73 -3057.13,2099.85 -4971.99,2099.85l-49490.3 0 0 31814.9c0,1913.39 -699.17,3572.48 -2098.68,4970.82 -1399.51,1399.51 -3057.13,2100.29 -4972.43,2100.29 -1914.56,0 -3572.04,-700.778 -4970.82,-2100.29l-60094.4 -60094.1c-1399.51,-1400.68 -2099.12,-3055.96 -2099.12,-4971.26 0.146239,-1914.42 699.609,-3573.65 2099.12,-4973.16z"/>
 </g>
</svg>
