<?xml version="1.0" encoding="UTF-8"?>
<!DOCTYPE svg PUBLIC "-//W3C//DTD SVG 1.1//EN" "http://www.w3.org/Graphics/SVG/1.1/DTD/svg11.dtd">
<!-- Creator: CorelDRAW X5 -->
<svg xmlns="http://www.w3.org/2000/svg" xml:space="preserve" width="352778mm" height="352778mm" style="shape-rendering:geometricPrecision; text-rendering:geometricPrecision; image-rendering:optimizeQuality; fill-rule:evenodd; clip-rule:evenodd"
viewBox="0 0 12483.1 12483.1"
 xmlns:xlink="http://www.w3.org/1999/xlink">
 <defs>
  <style type="text/css">
   <![CDATA[
    .fil0 {fill:black}
   ]]>
  </style>
 </defs>
 <g id="Layer_x0020_1">
  <metadata id="CorelCorpID_0Corel-Layer"/>
  <g id="_259566504">
   <g id="message">
    <path id="_265435648" class="fil0" d="M11234.8 0l-9986.51 0c-686.576,0 -1248.32,561.742 -1248.32,1248.32l0 11234.8 2496.63 -2496.63 8738.2 0c686.576,0 1248.32,-561.742 1248.32,-1248.32l0 -7489.88c0,-686.576 -561.742,-1248.32 -1248.32,-1248.32zm-1248.31 7489.89l-7489.89 0 0 -1248.32 7489.89 0 0 1248.32zm0 -1872.48l-7489.89 0 0 -1248.32 7489.89 0.00925105 0 1248.31zm0 -1872.47l-7489.89 0 0 -1248.32 7489.89 0 0 1248.32z"/>
   </g>
  </g>
 </g>
</svg>
