<?xml version="1.0" encoding="UTF-8"?>
<!DOCTYPE svg PUBLIC "-//W3C//DTD SVG 1.1//EN" "http://www.w3.org/Graphics/SVG/1.1/DTD/svg11.dtd">
<!-- Creator: CorelDRAW X5 -->
<svg xmlns="http://www.w3.org/2000/svg" xml:space="preserve" width="107.221mm" height="100mm" style="shape-rendering:geometricPrecision; text-rendering:geometricPrecision; image-rendering:optimizeQuality; fill-rule:evenodd; clip-rule:evenodd"
viewBox="0 0 2.8788 2.68492"
 xmlns:xlink="http://www.w3.org/1999/xlink">
 <defs>
  <style type="text/css">
   <![CDATA[
    .fil0 {fill:#2B2A29}
   ]]>
  </style>
 </defs>
 <g id="Layer_x0020_1">
  <metadata id="CorelCorpID_0Corel-Layer"/>
  <g id="_259526960">
   <g id="Fax2_1_">
    <path id="_126838480" class="fil0" d="M2.15909 0.517044l-0.349548 -3.17108e-005 0 0c-0.0162359,0 -0.0293959,0.01316 -0.0293959,0.0293959 0,0.0162042 0.01316,0.0293642 0.0293959,0.0293642l0.349548 3.17108e-005 0 0c0.0162359,0 0.0293642,-0.01316 0.0293642,-0.0293959 0,-0.0162042 -0.0131283,-0.0293642 -0.0293642,-0.0293642z"/>
    <path id="_126838408" class="fil0" d="M2.50867 0.340827l-0.699159 -6.34215e-005 0 0c-0.0162042,0 -0.0293642,0.01316 -0.0293642,0.0293959 0,0.0162042 0.01316,0.0293642 0.0293642,0.0293642l0.699159 6.34215e-005 0 0c0.0162042,0 0.0293642,-0.01316 0.0293642,-0.0293959 0,-0.0162042 -0.01316,-0.0293642 -0.0293642,-0.0293642z"/>
    <path id="_126838336" class="fil0" d="M2.50867 0.164579l-0.699159 -6.34215e-005 0 0c-0.0162042,0 -0.0293642,0.01316 -0.0293642,0.0293642 0,0.0162359 0.01316,0.0293959 0.0293642,0.0293959l0.699159 3.17108e-005 0 0c0.0162042,0 0.0293642,-0.0131283 0.0293642,-0.0293642 0,-0.0162042 -0.01316,-0.0293642 -0.0293642,-0.0293642z"/>
    <path id="_126838264" class="fil0" d="M2.64966 0.440716c0,-0.146916 0,-0.2938 0,-0.440716 -0.327033,0 -0.654098,0 -0.981131,0 0,0.146884 0,0.293768 0,0.440621 -0.129951,0 -0.259901,0 -0.389852,0 0.0353892,0.0801965 0.0520374,0.159125 0.0520374,0.246773 0,0.501315 0,1.00266 0,1.50401 0,0.0876485 -0.0166481,0.166577 -0.0520374,0.246741 0.455018,0 0.910067,0 1.36512,0 0.129792,0 0.235008,-0.105216 0.235008,-0.234977 0,-0.50918 0,-1.01836 0,-1.52754 0,-0.127509 -0.101665,-0.231742 -0.229142,-0.234913zm-0.922371 -0.381956l0.863643 0 0 0.605136 -0.863643 0 0 -0.605136zm0.0616774 1.86827c-0.110036,0 -0.123387,-0.0133502 -0.123387,-0.123387 0,-0.110036 0.0133502,-0.123387 0.123387,-0.123387 0.110036,0 0.123387,0.0133502 0.123387,0.123387 0,0.110036 -0.0133502,0.123387 -0.123387,0.123387zm0 -0.364262c-0.110036,0 -0.123387,-0.0133185 -0.123387,-0.123387 0,-0.110036 0.0133502,-0.123355 0.123387,-0.123355 0.110036,0 0.123387,0.0133185 0.123387,0.123355 0,0.110068 -0.0133502,0.123387 -0.123387,0.123387zm0 -0.364262c-0.110036,0 -0.123387,-0.0133185 -0.123387,-0.123355 0,-0.110068 0.0133502,-0.123387 0.123387,-0.123387 0.110036,0 0.123387,0.0133185 0.123387,0.123387 0,0.110036 -0.0133502,0.123355 -0.123387,0.123355zm0.370128 0.728523c-0.110036,0 -0.123387,-0.0133502 -0.123387,-0.123387 0,-0.110036 0.0133502,-0.123387 0.123387,-0.123387 0.110036,0 0.123387,0.0133502 0.123387,0.123387 0,0.110036 -0.0133502,0.123387 -0.123387,0.123387zm0 -0.364262c-0.110036,0 -0.123387,-0.0133185 -0.123387,-0.123387 0,-0.110036 0.0133502,-0.123355 0.123387,-0.123355 0.110036,0 0.123387,0.0133185 0.123387,0.123387 0,0.110036 -0.0133502,0.123355 -0.123387,0.123355zm0 -0.364262c-0.110036,0 -0.123387,-0.0133185 -0.123387,-0.123355 0,-0.110068 0.0133502,-0.123387 0.123387,-0.123387 0.110036,0 0.123387,0.0133185 0.123387,0.123387 0,0.110036 -0.0133502,0.123355 -0.123387,0.123355zm0.370128 0.728523c-0.110036,0 -0.123387,-0.0133502 -0.123387,-0.123387 0,-0.110036 0.0133502,-0.123387 0.123387,-0.123387 0.110068,0 0.123387,0.0133502 0.123387,0.123387 0,0.110036 -0.0133502,0.123387 -0.123387,0.123387zm0 -0.364262c-0.110036,0 -0.123387,-0.0133185 -0.123387,-0.123387 0,-0.110036 0.0133502,-0.123355 0.123387,-0.123355 0.110068,0 0.123387,0.0133185 0.123387,0.123355 0,0.110068 -0.0133502,0.123387 -0.123387,0.123387zm0 -0.364262c-0.110036,0 -0.123387,-0.0133185 -0.123387,-0.123355 0,-0.110068 0.0133502,-0.123387 0.123387,-0.123387 0.110068,0 0.123387,0.0133185 0.123387,0.123387 0,0.110036 -0.0133502,0.123355 -0.123387,0.123355z"/>
    <path id="_126838192" class="fil0" d="M0.719707 0.19388c-0.272554,0 -0.493515,0.220961 -0.493515,0.493515 0,0.501315 0,1.00266 0,1.50401 0,0.272554 0.220961,0.493515 0.493515,0.493515 0.272554,0 0.493483,-0.220961 0.493483,-0.493515 0,-0.501347 0,-1.00269 0,-1.50401 0,-0.272554 -0.220929,-0.493515 -0.493483,-0.493515z"/>
    <path id="_125353656" class="fil0" d="M0.154685 0.454764c-0.0928491,0.033772 -0.154685,0.122055 -0.154685,0.220865 0,0.50918 0,1.01836 0,1.52754 0,0.0988107 0.061836,0.187062 0.154685,0.220834 -0.0312034,-0.0758204 -0.0460123,-0.150594 -0.0460123,-0.232598 0,-0.501347 0,-1.00269 0,-1.50401 0,-0.0820357 0.0148089,-0.156778 0.0460123,-0.23263z"/>
   </g>
  </g>
 </g>
</svg>
