<?xml version="1.0" encoding="UTF-8"?>
<!DOCTYPE svg PUBLIC "-//W3C//DTD SVG 1.1//EN" "http://www.w3.org/Graphics/SVG/1.1/DTD/svg11.dtd">
<!-- Creator: CorelDRAW X5 -->
<svg xmlns="http://www.w3.org/2000/svg" xml:space="preserve" width="100mm" height="100mm" style="shape-rendering:geometricPrecision; text-rendering:geometricPrecision; image-rendering:optimizeQuality; fill-rule:evenodd; clip-rule:evenodd"
viewBox="0 0 19.4196 19.4196"
 xmlns:xlink="http://www.w3.org/1999/xlink">
 <defs>
  <style type="text/css">
   <![CDATA[
    .str0 {stroke:#FDFDFD;stroke-width:0.0868762;stroke-opacity:0.000000}
    .fil1 {fill:black}
    .fil0 {fill:#FDFDFD;fill-opacity:0.000000}
   ]]>
  </style>
 </defs>
 <g id="Layer_x0020_1">
  <metadata id="CorelCorpID_0Corel-Layer"/>
  <polygon class="fil0 str0" points="0.0434381,0.0434381 19.3761,0.0434381 19.3761,19.3761 0.0434381,19.3761 "/>
 </g>
 <g id="Layer_x0020_1_0">
  <metadata id="CorelCorpID_1Corel-Layer"/>
  <g id="_243080616">
   <g>
    <path id="_243081072" class="fil1" d="M11.3508 13.1197l2.49135 -4.53442c0.367747,-0.681153 0.562263,-1.4517 0.562263,-2.22881 4.34381e-005,-2.58865 -2.10597,-4.69466 -4.69466,-4.69466 -2.58869,0 -4.69466,2.10601 -4.69466,4.69466 0,0.777108 0.194559,1.54766 0.563566,2.23076l2.49013 4.53246c-2.19871,0.139523 -5.73639,0.622859 -5.73639,2.2908 0,2.28154 6.62223,2.34735 7.37735,2.34735 0.755172,0 7.3774,-0.0658087 7.3774,-2.34735 0,-1.66794 -3.53764,-2.15123 -5.73635,-2.2908zm-4.3237 -6.76323c0,-1.4792 1.20345,-2.68265 2.68265,-2.68265 1.4792,0 2.68269,1.20345 2.68269,2.68265 0,1.4792 -1.2035,2.68269 -2.68269,2.68269 -1.4792,0 -2.68265,-1.2035 -2.68265,-2.68269zm2.68265 10.06c-3.2973,0 -5.45965,-0.602878 -5.96622,-1.00603 0.457316,-0.363924 2.26769,-0.889178 5.04095,-0.988087l0.63159 1.14955c0.058598,0.107422 0.171233,0.173883 0.293728,0.173883 0.122495,0 0.23513,-0.0665037 0.293772,-0.173883l0.63159 -1.14955c2.77326,0.0989086 4.58355,0.624162 5.04091,0.988087 -0.506619,0.403149 -2.66897,1.00603 -5.96631,1.00603z"/>
   </g>
  </g>
 </g>
</svg>
