<?xml version="1.0" encoding="UTF-8"?>
<!DOCTYPE svg PUBLIC "-//W3C//DTD SVG 1.1//EN" "http://www.w3.org/Graphics/SVG/1.1/DTD/svg11.dtd">
<!-- Creator: CorelDRAW X5 -->
<svg xmlns="http://www.w3.org/2000/svg" xml:space="preserve" width="343487mm" height="352778mm" style="shape-rendering:geometricPrecision; text-rendering:geometricPrecision; image-rendering:optimizeQuality; fill-rule:evenodd; clip-rule:evenodd"
viewBox="0 0 221018 226996"
 xmlns:xlink="http://www.w3.org/1999/xlink">
 <defs>
  <style type="text/css">
   <![CDATA[
    .fil0 {fill:black}
   ]]>
  </style>
 </defs>
 <g id="Layer_x0020_1_0">
  <metadata id="CorelCorpID_0Corel-Layer"/>
  <path class="fil0" d="M217471 105097l-101547 -101551c-2362.9,-2361.66 -5163.93,-3546.32 -8399.63,-3546.32 -3235.7,0 -6036.73,1184.66 -8402.34,3546.32 -2364.87,2364.87 -3546.32,5167.88 -3546.32,8401.6l0 53761 -83627.6 0c-3237.68,0 -6036.73,1184.66 -8401.6,3546.32 -2364.87,2364.87 -3546.32,5165.9 -3546.32,8401.6l0 71682.4c0,3235.21 1181.45,6035.99 3546.32,8399.63 2367.59,2360.18 5165.9,3548.3 8401.6,3548.3l83628.3 0 0 53760.5c0,3233.23 1181.45,6036.73 3546.32,8399.63 2364.87,2364.87 5165.9,3549.04 8402.34,3549.04 3235.21,0 6035.99,-1184.17 8399.63,-3549.04l101547 -101546c2364.87,-2366.85 3547.06,-5163.93 3547.06,-8400.37 -0.247113,-3234.96 -1182.19,-6038.71 -3547.06,-8403.58z"/>
 </g>
</svg>
